<?xml version="1.0" encoding="utf-8"?>
<!-- Generator: Adobe Illustrator 23.0.0, SVG Export Plug-In . SVG Version: 6.00 Build 0)  -->
<svg version="1.1" id="Capa_1" xmlns="http://www.w3.org/2000/svg" xmlns:xlink="http://www.w3.org/1999/xlink" x="0px" y="0px"
	 viewBox="0 0 85 85" style="enable-background:new 0 0 85 85;" xml:space="preserve">
<style type="text/css">
	.st0{stroke:#000000;stroke-width:2;stroke-miterlimit:10;}
</style>
<path class="st0" d="M26.6,42.5L26.6,42.5c0-1,0.8-1.9,1.9-1.9h28.1c1.1,0,1.9,0.8,1.9,1.9l0,0c0,1.1-0.8,1.9-1.9,1.9H28.4
	C27.5,44.4,26.6,43.6,26.6,42.5z"/>
<path class="st0" d="M42.5,58.5L42.5,58.5c-1.1,0-1.9-0.8-1.9-1.9V28.4c0-1.1,0.8-1.9,1.9-1.9l0,0c1.1,0,1.9,0.8,1.9,1.9v28.1
	C44.4,57.6,43.6,58.5,42.5,58.5z"/>
</svg>
